# xmcd CD database file
#
# Track frame offsets:
#	183
#	27835
#	51320
#	67550
#	99368
#	120843
#
# Disc length: 1782 seconds
#
# Revision: 3
# Processed by: cddbd v1.4PL0 Copyright (c) Steve Scherf et al.
# Submitted via: CDex 1.50Beta5
#
DISCID=3b06f406
DTITLE=Lightnin' Hopkins - The Lost Texas Tapes Volume 4
DYEAR=1900
DGENRE=Blues
TTITLE0=With You On My Mind
TTITLE1=Little Rose
TTITLE2=Possum Hunt
TTITLE3=Love Me Or Leave Me
TTITLE4=Load The Train
TTITLE5=Baby Don't Tear My Clothes
EXTD=
EXTT0=
EXTT1=
EXTT2=
EXTT3=
EXTT4=
EXTT5=
PLAYORDER=
